<?xml version="1.0" encoding="utf-8"?>
<!-- Generator: Adobe Illustrator 21.0.2, SVG Export Plug-In . SVG Version: 6.00 Build 0)  -->
<svg version="1.1" id="Layer_1" xmlns="http://www.w3.org/2000/svg" xmlns:xlink="http://www.w3.org/1999/xlink" x="0px" y="0px"
	 viewBox="0 0 200 200" style="enable-background:new 0 0 200 200;" xml:space="preserve">
<style type="text/css">
	.st0{fill:#FFFFFF;}
</style>
<title>discArtboard 1</title>
<g>
	<path class="st0" d="M200,100c0,14-29,17-34,29s13,33,4,42s-34-16-46-11s-11,40-25,40s-13-35-25-40s-36,20-45,11s7-30,2-42
		S0,114,0,100s27-17,32-29s-12-33-3-42s29,6,41,0S86,0,100,0s18,24,30,29s32-9,41,0s-9,30-4,42S200,86,200,100z"/>
	<g>
		<path d="M58.7,99.9v4H48.2v-4H58.7z"/>
		<path d="M87,91.4H76.9l-0.6,4c0.6-0.1,1-0.1,1.7-0.1c2.5,0,5,0.6,6.8,1.9c2,1.3,3.2,3.5,3.2,6.5c0,4.8-4.2,9.1-11.2,9.1
			c-3.2,0-5.8-0.7-7.2-1.5l1.1-4.6c1.2,0.6,3.5,1.3,5.9,1.3c2.5,0,5.2-1.2,5.2-4c0-2.7-2.1-4.3-7.3-4.3c-1.4,0-2.4,0.1-3.5,0.2
			l1.7-13.6H87V91.4z"/>
		<path d="M111,99.3c0,8-3.2,13.6-9.9,13.6c-6.7,0-9.7-6-9.7-13.4c0-7.5,3.2-13.5,9.9-13.5C108.3,86,111,92.2,111,99.3z M97.6,99.4
			c0,6,1.4,8.8,3.8,8.8c2.4,0,3.6-3,3.6-8.9c0-5.8-1.2-8.8-3.7-8.8C99,90.6,97.5,93.4,97.6,99.4z"/>
		<path d="M127.7,93.7c0,5.4-3.4,8.3-7.2,8.3c-4,0-7.1-3-7.1-7.8c0-4.6,2.8-8.2,7.3-8.2C125.2,86,127.7,89.2,127.7,93.7z M118,94
			c0,2.7,0.9,4.7,2.7,4.7c1.7,0,2.6-1.8,2.6-4.7c0-2.6-0.7-4.7-2.6-4.7C118.8,89.3,118,91.4,118,94z M120.8,112.8L135.8,86h3.3
			l-15,26.9H120.8z M146.4,104.5c0,5.4-3.4,8.3-7.2,8.3c-3.9,0-7-3-7.1-7.8c0-4.6,2.8-8.2,7.3-8.2C143.9,96.8,146.4,100,146.4,104.5
			z M136.7,104.8c0,2.7,0.9,4.7,2.6,4.7c1.7,0,2.6-1.8,2.6-4.7c0-2.6-0.7-4.7-2.6-4.7C137.5,100.1,136.7,102.2,136.7,104.8z"/>
	</g>
</g>
</svg>
